# xmcd
#
# Track frame offsets: 
#        150
#        13903
#        29268
#        42974
#        59106
#        78833
#        89443
#        105510
#        118729
#        134517
#        152039
#        168582
#        182993
#        199620
#        217587
#        232024
#        248796
#        268586
#        281668
#        297512
#        314448
#
# Disc length: 4441 seconds
#
# Revision: 8
# Processed by: cddbd v1.5.2PL0 Copyright (c) Steve Scherf et al.
# Submitted via: ExactAudioCopy v1.2
#
DISCID=37115715
DTITLE=Vaya Con Dios - The Ultimate Collection
DYEAR=2006
DGENRE=Pop
TTITLE0=Pauvre Diable
TTITLE1=Just A Friend Of Mine
TTITLE2=Don't Cry For Louie
TTITLE3=Philadelphia
TTITLE4=Puerto Rico
TTITLE5=Johnny
TTITLE6=I Don't Want To Know
TTITLE7=Nah Neh Nah
TTITLE8=Travelling Light
TTITLE9=What's A Woman?
TTITLE10=Heading For A Fall
TTITLE11=Far Gone Now
TTITLE12=Time Flies
TTITLE13=Forever Blue
TTITLE14=Farewell Song
TTITLE15=Stay With Me
TTITLE16=Don't Break My Heart
TTITLE17=Je L'Aime, Je L'Aime
TTITLE18=Don't Deny
TTITLE19=Some Like It Hot
TTITLE20=What's A Woman (with Aaron Neville)
EXTD=
EXTT0=
EXTT1=
EXTT2=
EXTT3=
EXTT4=
EXTT5=
EXTT6=
EXTT7=
EXTT8=
EXTT9=
EXTT10=
EXTT11=
EXTT12=
EXTT13=
EXTT14=
EXTT15=
EXTT16=
EXTT17=
EXTT18=
EXTT19=
EXTT20=
PLAYORDER=
